<svg id="visual" viewBox="0 0 900 600" width="900" height="600" xmlns="http://www.w3.org/2000/svg" xmlns:xlink="http://www.w3.org/1999/xlink" version="1.1"><path d="M0 67L13.7 67C27.3 67 54.7 67 82 67C109.3 67 136.7 67 163.8 68C191 69 218 71 245.2 68C272.3 65 299.7 57 327 53C354.3 49 381.7 49 409 50C436.3 51 463.7 53 491 56C518.3 59 545.7 63 573 67C600.3 71 627.7 75 654.8 78C682 81 709 83 736.2 83C763.3 83 790.7 81 818 81C845.3 81 872.7 83 886.3 84L900 85L900 0L886.3 0C872.7 0 845.3 0 818 0C790.7 0 763.3 0 736.2 0C709 0 682 0 654.8 0C627.7 0 600.3 0 573 0C545.7 0 518.3 0 491 0C463.7 0 436.3 0 409 0C381.7 0 354.3 0 327 0C299.7 0 272.3 0 245.2 0C218 0 191 0 163.8 0C136.7 0 109.3 0 82 0C54.7 0 27.3 0 13.7 0L0 0Z" fill="#003783"></path><path d="M0 115L13.7 112C27.3 109 54.7 103 82 102C109.3 101 136.7 105 163.8 107C191 109 218 109 245.2 108C272.3 107 299.7 105 327 103C354.3 101 381.7 99 409 99C436.3 99 463.7 101 491 101C518.3 101 545.7 99 573 103C600.3 107 627.7 117 654.8 122C682 127 709 127 736.2 126C763.3 125 790.7 123 818 125C845.3 127 872.7 133 886.3 136L900 139L900 83L886.3 82C872.7 81 845.3 79 818 79C790.7 79 763.3 81 736.2 81C709 81 682 79 654.8 76C627.7 73 600.3 69 573 65C545.7 61 518.3 57 491 54C463.7 51 436.3 49 409 48C381.7 47 354.3 47 327 51C299.7 55 272.3 63 245.2 66C218 69 191 67 163.8 66C136.7 65 109.3 65 82 65C54.7 65 27.3 65 13.7 65L0 65Z" fill="#0045a9"></path><path d="M0 253L13.7 249C27.3 245 54.7 237 82 231C109.3 225 136.7 221 163.8 219C191 217 218 217 245.2 217C272.3 217 299.7 217 327 223C354.3 229 381.7 241 409 244C436.3 247 463.7 241 491 234C518.3 227 545.7 219 573 218C600.3 217 627.7 223 654.8 231C682 239 709 249 736.2 258C763.3 267 790.7 275 818 276C845.3 277 872.7 271 886.3 268L900 265L900 137L886.3 134C872.7 131 845.3 125 818 123C790.7 121 763.3 123 736.2 124C709 125 682 125 654.8 120C627.7 115 600.3 105 573 101C545.7 97 518.3 99 491 99C463.7 99 436.3 97 409 97C381.7 97 354.3 99 327 101C299.7 103 272.3 105 245.2 106C218 107 191 107 163.8 105C136.7 103 109.3 99 82 100C54.7 101 27.3 107 13.7 110L0 113Z" fill="#3163c3"></path><path d="M0 391L13.7 392C27.3 393 54.7 395 82 396C109.3 397 136.7 397 163.8 399C191 401 218 405 245.2 408C272.3 411 299.7 413 327 408C354.3 403 381.7 391 409 388C436.3 385 463.7 391 491 397C518.3 403 545.7 409 573 405C600.3 401 627.7 387 654.8 387C682 387 709 401 736.2 413C763.3 425 790.7 435 818 437C845.3 439 872.7 433 886.3 430L900 427L900 263L886.3 266C872.7 269 845.3 275 818 274C790.7 273 763.3 265 736.2 256C709 247 682 237 654.8 229C627.7 221 600.3 215 573 216C545.7 217 518.3 225 491 232C463.7 239 436.3 245 409 242C381.7 239 354.3 227 327 221C299.7 215 272.3 215 245.2 215C218 215 191 215 163.8 217C136.7 219 109.3 223 82 229C54.7 235 27.3 243 13.7 247L0 251Z" fill="#4170cc"></path><path d="M0 433L13.7 434C27.3 435 54.7 437 82 442C109.3 447 136.7 455 163.8 459C191 463 218 463 245.2 464C272.3 465 299.7 467 327 461C354.3 455 381.7 441 409 439C436.3 437 463.7 447 491 455C518.3 463 545.7 469 573 464C600.3 459 627.7 443 654.8 439C682 435 709 443 736.2 453C763.3 463 790.7 475 818 481C845.3 487 872.7 487 886.3 487L900 487L900 425L886.3 428C872.7 431 845.3 437 818 435C790.7 433 763.3 423 736.2 411C709 399 682 385 654.8 385C627.7 385 600.3 399 573 403C545.7 407 518.3 401 491 395C463.7 389 436.3 383 409 386C381.7 389 354.3 401 327 406C299.7 411 272.3 409 245.2 406C218 403 191 399 163.8 397C136.7 395 109.3 395 82 394C54.7 393 27.3 391 13.7 390L0 389Z" fill="#3163c3"></path><path d="M0 547L13.7 544C27.3 541 54.7 535 82 535C109.3 535 136.7 541 163.8 546C191 551 218 555 245.2 553C272.3 551 299.7 543 327 541C354.3 539 381.7 543 409 544C436.3 545 463.7 543 491 544C518.3 545 545.7 549 573 547C600.3 545 627.7 537 654.8 535C682 533 709 537 736.2 542C763.3 547 790.7 553 818 554C845.3 555 872.7 551 886.3 549L900 547L900 485L886.3 485C872.7 485 845.3 485 818 479C790.7 473 763.3 461 736.2 451C709 441 682 433 654.8 437C627.7 441 600.3 457 573 462C545.7 467 518.3 461 491 453C463.7 445 436.3 435 409 437C381.7 439 354.3 453 327 459C299.7 465 272.3 463 245.2 462C218 461 191 461 163.8 457C136.7 453 109.3 445 82 440C54.7 435 27.3 433 13.7 432L0 431Z" fill="#0045a9"></path><path d="M0 601L13.7 601C27.3 601 54.7 601 82 601C109.3 601 136.7 601 163.8 601C191 601 218 601 245.2 601C272.3 601 299.7 601 327 601C354.3 601 381.7 601 409 601C436.3 601 463.7 601 491 601C518.3 601 545.7 601 573 601C600.3 601 627.7 601 654.8 601C682 601 709 601 736.2 601C763.3 601 790.7 601 818 601C845.3 601 872.7 601 886.3 601L900 601L900 545L886.3 547C872.7 549 845.3 553 818 552C790.7 551 763.3 545 736.2 540C709 535 682 531 654.8 533C627.7 535 600.3 543 573 545C545.7 547 518.3 543 491 542C463.7 541 436.3 543 409 542C381.7 541 354.3 537 327 539C299.7 541 272.3 549 245.2 551C218 553 191 549 163.8 544C136.7 539 109.3 533 82 533C54.7 533 27.3 539 13.7 542L0 545Z" fill="#003783"></path></svg>