<?xml version="1.0" ?><svg data-name="Layer 1" id="Layer_1" viewBox="0 0 64 64" xmlns="http://www.w3.org/2000/svg"><title/><desc/><path d="M36.06,55a20,20,0,0,1-20-20V17h-2a4,4,0,0,0-4,4V57a4,4,0,0,0,4,4h34a4,4,0,0,0,4-4V55Z" style="fill:#cff09e"/><path d="M30.84,3a12.26,12.26,0,0,0-11.78,12.4V23a2,2,0,0,0,2,2h0a2,2,0,0,0,2-2V15.29A8.18,8.18,0,0,1,30.53,7a8,8,0,0,1,8.53,8v8a2,2,0,0,0,2,2h0a2,2,0,0,0,2-2V15A12,12,0,0,0,30.84,3Z" style="fill:#a8dba8"/><path d="M26.06,44h12a1,1,0,0,1,1,1V55a0,0,0,0,1,0,0h-14a0,0,0,0,1,0,0V45A1,1,0,0,1,26.06,44Z" style="fill:#a8dba8"/><rect height="11" style="fill:#79bd9a" width="4" x="30.06" y="44.02"/><path d="M19.06,47h6a0,0,0,0,1,0,0v8a0,0,0,0,1,0,0h-4a2,2,0,0,1-2-2V47A0,0,0,0,1,19.06,47Z" style="fill:#79bd9a"/><path d="M39.06,49h6a1,1,0,0,1,1,1v3a2,2,0,0,1-2,2h-5a0,0,0,0,1,0,0V49A0,0,0,0,1,39.06,49Z" style="fill:#79bd9a"/><path d="M48.06,16h-4V15a12.91,12.91,0,0,0-3.89-9.28A13.1,13.1,0,0,0,30.82,2a13.27,13.27,0,0,0-12.76,13.4V16h-4a5,5,0,0,0-5,5V57a5,5,0,0,0,5,5h34a5,5,0,0,0,5-5V21A5,5,0,0,0,48.06,16Zm-28-.6A11.26,11.26,0,0,1,30.86,4a11,11,0,0,1,11.2,11v8a1,1,0,0,1-2,0V15a9.07,9.07,0,0,0-2.84-6.57A8.92,8.92,0,0,0,31.07,6l-.61,0a9.16,9.16,0,0,0-8.4,9.25V23a1,1,0,0,1-2,0Zm18,.6h-14v-.73A7.16,7.16,0,0,1,30.59,8a7,7,0,0,1,7.47,7Zm13,41a3,3,0,0,1-3,3h-34a3,3,0,0,1-3-3V21a3,3,0,0,1,3-3h4v5a3,3,0,0,0,6,0V18h14v5a3,3,0,0,0,6,0V18h4a3,3,0,0,1,3,3Z" style="fill:#3b8686"/><path d="M46.06,48h-6V45a2,2,0,0,0-1.58-2,5.93,5.93,0,0,0,1.58-4,1,1,0,0,0-2,0A4,4,0,0,1,37,41.72a4.05,4.05,0,0,0,.07-.7,3,3,0,0,0-5-2.22,3,3,0,0,0-5,2.22,4.05,4.05,0,0,0,.07.7A4,4,0,0,1,26.06,39a1,1,0,0,0-2,0,5.93,5.93,0,0,0,1.58,4,2,2,0,0,0-1.58,2v1h-5a1,1,0,0,0-1,1v8a1,1,0,0,0,1,1h6a1,1,0,0,0,.42-.1,1.86,1.86,0,0,0,.58.1h12a1.81,1.81,0,0,0,.58-.1,1,1,0,0,0,.42.1h7a1,1,0,0,0,1-1V49A1,1,0,0,0,46.06,48Zm-12-8a1,1,0,0,1,1,1,2,2,0,0,1-2,2V41A1,1,0,0,1,34.06,40Zm-4,0a1,1,0,0,1,1,1v2a2,2,0,0,1-2-2A1,1,0,0,1,30.06,40Zm-10,14V48h4v6Zm6-7V45h3v9h-3Zm5,7V45h2v9Zm4,0V45h3v4h0v5Zm10,0h-5V50h5Z" style="fill:#3b8686"/><path d="M28.6,33a1,1,0,0,0,.86.5.9.9,0,0,0,.5-.14l1.1-.63V34a1,1,0,1,0,2,0V32.75l1.1.63a.93.93,0,0,0,.5.14,1,1,0,0,0,.5-1.87L34.06,31l1.1-.64A1,1,0,0,0,35.53,29a1,1,0,0,0-1.37-.37l-1.1.64V28a1,1,0,1,0-2,0v1.27L30,28.65a1,1,0,0,0-1,1.73l1.1.64-1.1.63A1,1,0,0,0,28.6,33Z" style="fill:#3b8686"/><path d="M18.6,37.14l-.71-.71.71-.7a1,1,0,1,0-1.42-1.42l-.7.71-.71-.71a1,1,0,1,0-1.42,1.42l.71.7-.71.71a1,1,0,0,0,0,1.41,1,1,0,0,0,.71.3,1,1,0,0,0,.71-.3l.71-.7.7.7a1,1,0,0,0,1.42-1.41Z" style="fill:#3b8686"/><path d="M48.06,36.6h-1v-1a1,1,0,1,0-2,0v1h-1a1,1,0,0,0,0,2h1v1a1,1,0,0,0,2,0v-1h1a1,1,0,0,0,0-2Z" style="fill:#3b8686"/><circle cx="21.06" cy="43.02" r="1" style="fill:#3b8686"/><circle cx="43.06" cy="32.02" r="1" style="fill:#3b8686"/><circle cx="44.06" cy="44.02" r="1" style="fill:#3b8686"/><circle cx="21.06" cy="31.02" r="1" style="fill:#3b8686"/><circle cx="14.06" cy="46.02" r="1" style="fill:#3b8686"/></svg>